<?xml version="1.0" encoding="iso-8859-1"?>
<!-- Generator: Adobe Illustrator 19.0.0, SVG Export Plug-In . SVG Version: 6.00 Build 0)  -->
<svg version="1.1" id="Capa_1" xmlns="http://www.w3.org/2000/svg" xmlns:xlink="http://www.w3.org/1999/xlink" x="0px" y="0px"
	 viewBox="0 0 512 512" style="enable-background:new 0 0 512 512;" xml:space="preserve">
<g>
	<g>
		<path d="M266.667,0C260.779,0,256,4.779,256,10.667v234.667c0,5.888,4.779,10.667,10.667,10.667h234.667
			c5.888,0,10.667-4.779,10.667-10.667C512,110.059,401.941,0,266.667,0z"/>
	</g>
</g>
<g>
	<g>
		<path d="M381.76,452.117L234.667,263.019V32c0-5.888-4.779-10.667-10.667-10.667c-123.52,0-224,110.059-224,245.333
			S110.059,512,245.333,512c60.523,0,93.269-10.965,134.763-45.099C384.555,463.232,385.301,456.683,381.76,452.117z"/>
	</g>
</g>
<g>
	<g>
		<path d="M501.333,277.333H288c-4.096,0-7.851,2.368-9.621,6.08s-1.259,8.107,1.344,11.285l138.667,171.669
			c1.856,2.304,4.587,3.733,7.552,3.947c0.256,0.021,0.491,0.021,0.747,0.021c2.688,0,5.291-1.024,7.275-2.859
			C483.541,421.205,512,355.797,512,288C512,282.112,507.221,277.333,501.333,277.333z"/>
	</g>
</g>
<g>
</g>
<g>
</g>
<g>
</g>
<g>
</g>
<g>
</g>
<g>
</g>
<g>
</g>
<g>
</g>
<g>
</g>
<g>
</g>
<g>
</g>
<g>
</g>
<g>
</g>
<g>
</g>
<g>
</g>
</svg>
