<svg id="Layer_1" data-name="Layer 1" xmlns="http://www.w3.org/2000/svg" viewBox="0 0 237.93 512">
    <title>biology_icon</title>
    <g id="Page-1">
        <path id="Shape" d="M326.06,77.43a109.28,109.28,0,0,0,11.53-39.94,183.77,183.77,0,0,0,.92-19.2,18.29,18.29,0,1,1,36.57,0c0,51.38-17.48,90.51-51.57,116.55a197.17,197.17,0,0,0-39.19-18.29,94.49,94.49,0,0,0,41.74-39.12Zm-70,30.93a96.24,96.24,0,0,1-44.27-26.07h88.64A96.44,96.44,0,0,1,256.05,108.36Zm61.79-62.65A86.16,86.16,0,0,1,312.16,64H200a86.19,86.19,0,0,1-5.69-18.29ZM186.12,434.56a109.33,109.33,0,0,0-11.49,39.95,181.07,181.07,0,0,0-.92,19.2,18.29,18.29,0,1,1-36.57,0c0-51.38,17.47-90.46,51.57-116.55a197.07,197.07,0,0,0,39.17,18.24,94.63,94.63,0,0,0-41.76,39.16Zm70-30.92a96.32,96.32,0,0,1,44.28,26.07H211.77A96.35,96.35,0,0,1,256.13,403.64Zm-61.79,62.65A86.77,86.77,0,0,1,200,448H312.16a86.74,86.74,0,0,1,5.68,18.29ZM375,493.71a18.29,18.29,0,1,1-36.57,0,182.77,182.77,0,0,0-.92-19.29A109.6,109.6,0,0,0,326,434.51c-12.55-23.26-35.18-39.82-67.28-49.22l-1.39-.36c-1.83-.52-3.66-1-5.63-1.48a188.46,188.46,0,0,1-58.73-25A116.71,116.71,0,0,1,137.2,256.64l.05-.64-.05-.64a115.87,115.87,0,0,1,51.08-98.46,182.7,182.7,0,0,0,39.14,18.94,103.37,103.37,0,0,0-37.13,28.79,72.47,72.47,0,0,0-16.46,48.72l.09,2.65c0,.78-.07,1.48-.14,2.25a72.91,72.91,0,0,0,16.46,49.1,120.21,120.21,0,0,0,63.34,38.72c2.36.67,4.71,1.36,7.13,1.92a172.86,172.86,0,0,1,58.3,25.6c37.16,26,56,66.43,56,120.12ZM202.18,292.57a57.11,57.11,0,0,1-10.13-27.43H320a57.54,57.54,0,0,1-10.06,27.43Zm89.73,18.29a121.38,121.38,0,0,1-35.82,16.83,123.76,123.76,0,0,1-35.84-16.83Zm-99.75-64a56.8,56.8,0,0,1,10.05-27.43H310a57.2,57.2,0,0,1,10.12,27.43Zm28.11-45.72a121.33,121.33,0,0,1,35.81-16.83,123.57,123.57,0,0,1,35.85,16.83ZM375,256.65a115.85,115.85,0,0,1-51.09,98.45,182.7,182.7,0,0,0-39.14-18.94,103.16,103.16,0,0,0,37.12-28.79,73.4,73.4,0,0,0,16.46-48.72l0-2.65c0-.78.07-1.48.14-2.25A72.93,72.93,0,0,0,322,204.66a120,120,0,0,0-63.46-38.75c-2.33-.68-4.63-1.35-7-1.9a172.86,172.86,0,0,1-58.3-25.6C156,112.39,137.14,72,137.14,18.29a18.29,18.29,0,1,1,36.57,0,183.09,183.09,0,0,0,.92,19.3,109.18,109.18,0,0,0,11.56,39.9c12.53,23.26,35.17,39.82,67.28,49.22l1.39.36c1.77.51,3.65,1,5.62,1.48a188.17,188.17,0,0,1,58.72,25A116.67,116.67,0,0,1,375,255.35l-.06.65Z" transform="translate(-137.14 0)" />
    </g>
</svg>