<svg id="Capa_1" enable-background="new 0 0 512 512" height="512" viewBox="0 0 512 512" width="512" xmlns="http://www.w3.org/2000/svg"><g><path d="m256 216c-22.056 0-40 17.944-40 40s17.944 40 40 40 40-17.944 40-40-17.944-40-40-40zm0 60c-11.028 0-20-8.972-20-20s8.972-20 20-20 20 8.972 20 20-8.972 20-20 20z"/><circle cx="459" cy="305.999" r="10"/><path d="m400.624 173.221c20.883-71.924 16.068-122.585-13.624-139.731-11.455-6.613-31.952-10.979-64.546 5.776-20.631 10.606-43.461 28.328-66.448 51.495-31.696-32.138-62.143-53.252-87.21-60.516-4.36-17.459-20.144-30.245-38.796-30.245-22.056 0-40 17.944-40 40 0 10.263 3.991 20.08 10.92 27.433-8.312 30.398-.088 72.261 9.938 105.921-70.623 18.559-110.858 48.415-110.858 82.646s40.235 64.087 110.858 82.646c-10.026 33.662-18.25 75.524-9.938 105.921-6.929 7.354-10.92 17.17-10.92 27.433 0 22.056 17.944 40 40 40 18.653 0 34.436-12.787 38.796-30.246 25.062-7.263 55.506-28.374 87.204-60.51 31.698 32.135 62.142 53.247 87.204 60.51 4.36 17.459 20.143 30.246 38.796 30.246 22.056 0 40-17.944 40-40 0-10.268-3.994-20.088-10.92-27.435 8.312-30.4.086-72.266-9.941-105.927 6.715-1.771 13.225-3.664 19.441-5.659 5.259-1.688 8.152-7.32 6.464-12.579-1.689-5.259-7.32-8.151-12.579-6.464-6.194 1.99-12.709 3.872-19.443 5.63-7.059-20.586-15.837-41.94-26.17-63.66 10.209-21.606 18.862-42.931 25.794-63.57 59.456 15.466 97.354 40.063 97.354 63.664 0 5.367-1.969 10.869-5.852 16.354-3.192 4.507-2.125 10.748 2.382 13.939 4.507 3.192 10.749 2.124 13.94-2.383 6.324-8.93 9.53-18.32 9.53-27.91 0-34.332-40.426-64.238-111.376-82.779zm-69.026-116.167c13.567-6.975 32.455-13.718 45.401-6.243 20.285 11.713 21.731 57.486 4.14 117.78-21.657-4.665-44.808-8.059-68.986-10.153-13.491-19.102-27.716-36.924-42.407-53.132 21.662-21.909 42.92-38.52 61.852-48.252zm-75.598 335.019c-10.307-11.448-20.393-23.744-30.155-36.769 9.981.458 20.062.696 30.155.696s20.175-.238 30.155-.696c-9.762 13.026-19.848 25.322-30.155 36.769zm-.037-272.177c10.332 11.472 20.431 23.777 30.193 36.802-19.927-.91-40.271-.912-60.388.008 9.792-13.089 19.891-25.398 30.195-36.81zm-45.077 214.498c-8.54-12.499-16.66-25.392-24.165-38.393-7.61-13.184-14.791-26.619-21.394-40.001 6.603-13.382 13.784-26.816 21.394-40 7.595-13.156 15.7-26.045 24.126-38.391 29.922-2.132 60.795-2.118 90.268-.003 8.54 12.5 16.66 25.392 24.166 38.395 7.573 13.116 14.744 26.531 21.361 39.937-6.564 13.395-13.734 26.851-21.361 40.064-7.505 13.001-15.625 25.895-24.165 38.394-29.574 2.119-60.644 2.12-90.23-.002zm-41.487-128.393c-5.158 8.935-10.122 17.986-14.857 27.06-6.861-15.369-12.878-30.497-17.995-45.232 15.517-3.29 31.814-5.924 48.742-7.86-5.481 8.512-10.798 17.213-15.89 26.032zm-14.856 72.938c4.734 9.075 9.699 18.125 14.857 27.06 5.052 8.752 10.377 17.455 15.911 26.031-16.936-1.937-33.241-4.57-48.763-7.86 5.116-14.734 11.133-29.862 17.995-45.231zm188.058 27.06c5.165-8.947 10.124-18.006 14.841-27.084 6.875 15.398 12.896 30.534 18.01 45.255-15.52 3.289-31.824 5.923-48.762 7.86 5.533-8.576 10.859-17.279 15.911-26.031zm0-99.998c-5.052-8.752-10.377-17.454-15.911-26.03 16.81 1.923 32.989 4.531 48.391 7.783-5.011 14.732-10.93 29.836-17.702 45.159-4.721-9.045-9.659-18.047-14.778-26.912zm-100.378-100.731c-14.645 16.108-28.876 33.944-42.423 53.167-24.339 2.107-47.647 5.539-69.457 10.262-11.158-37.21-15.124-68.992-11.384-90.246 3.555 1.02 7.26 1.547 11.041 1.547 18.186 0 33.566-12.205 38.407-28.85 20.824 7.673 46.86 26.716 73.816 54.12zm-112.223-85.27c11.051 0 20 8.94 20 20 0 11.028-8.972 20-20 20-11.076 0-20-9.044-20-20 0-11.028 8.972-20 20-20zm-110 236c0-23.533 37.751-48.095 96.976-63.568 7.061 20.598 15.824 41.921 26.124 63.568-10.3 21.648-19.063 42.973-26.124 63.569-59.225-15.474-96.976-40.036-96.976-63.569zm110 236c-11.028 0-20-8.972-20-20 0-10.945 8.913-20 20-20 11.794 0 20.769 10.269 19.978 20.891-.005.069-.01.139-.013.209-.564 10.597-9.333 18.9-19.965 18.9zm38.407-31.15c-4.841-16.646-20.221-28.85-38.407-28.85-3.781 0-7.486.527-11.041 1.547-3.739-21.254.226-53.035 11.384-90.247 21.824 4.724 45.149 8.157 69.504 10.264 13.514 19.127 27.739 36.95 42.408 53.134-26.971 27.421-53.019 46.476-73.848 54.152zm101.338-54.152c14.668-16.183 28.894-34.006 42.408-53.134 24.359-2.107 47.683-5.54 69.504-10.264 11.158 37.21 15.124 68.992 11.385 90.247-3.556-1.021-7.261-1.547-11.042-1.547-18.186 0-33.566 12.204-38.407 28.85-20.829-7.677-46.878-26.731-73.848-54.152zm112.255 85.302c-10.632 0-19.401-8.303-19.964-18.9-.003-.07-.008-.14-.013-.209-.788-10.574 8.119-20.891 19.977-20.891 11.107 0 20 9.071 20 20 0 11.028-8.972 20-20 20z"/></g></svg>